<svg width="290" height="290" viewBox="0 0 290 290" fill="none" xmlns="http://www.w3.org/2000/svg">
<path d="M51 122H238V258C238 263.523 233.523 268 228 268H61C55.4772 268 51 263.523 51 258V122Z" fill="url(#paint0_radial_7_2)"/>
<path d="M132.358 33.0941C138.124 27.8255 141.007 25.1912 144.5 25.1912C147.993 25.1912 150.876 27.8255 156.642 33.0941L259.647 127.212C274.093 140.412 281.317 147.012 279.088 152.756C276.859 158.5 267.074 158.5 247.505 158.5H41.4952C21.9261 158.5 12.1415 158.5 9.91248 152.756C7.68345 147.012 14.9068 140.412 29.3534 127.212L132.358 33.0941Z" fill="url(#paint1_radial_7_2)"/>
<defs>
<radialGradient id="paint0_radial_7_2" cx="0" cy="0" r="1" gradientUnits="userSpaceOnUse" gradientTransform="translate(145 268) rotate(-90) scale(243 270.184)">
<stop stop-color="#FFEC73"/>
<stop offset="1" stop-color="#998E45"/>
</radialGradient>
<radialGradient id="paint1_radial_7_2" cx="0" cy="0" r="1" gradientUnits="userSpaceOnUse" gradientTransform="translate(145 268) rotate(-90) scale(243 270.184)">
<stop stop-color="#FFEC73"/>
<stop offset="1" stop-color="#998E45"/>
</radialGradient>
</defs>
</svg>
