<svg width="298" height="298" viewBox="0 0 298 298" fill="none" xmlns="http://www.w3.org/2000/svg">
<g filter="url(#filter0_d_4_18)">
<circle cx="149" cy="145" r="145" fill="url(#paint0_radial_4_18)"/>
</g>
<g filter="url(#filter1_dd_4_18)">
<path d="M235.865 212.485V178.87L235.775 178.78L206.023 144.376H235.775V108.868H179.157L201.944 82.5078H235.775V47H172.305L148.211 74.8925L124.883 47H62V82.5078H94.6137L117.401 108.868H62V144.376H91.7513L62.3832 178.329H62V212.485V218.568V242H84.7192V218.636L99.7301 218.681V241.977H122.449V218.749L137.46 218.794V241.977H160.179V218.884L175.19 218.929V242H197.909V218.997L212.582 219.042V242H236L235.842 219.109H235.865V218.568L236 212.485H235.865ZM115.552 178.51L148.437 142.123L182.403 178.712L115.552 178.51Z" fill="url(#paint1_radial_4_18)"/>
</g>
<defs>
<filter id="filter0_d_4_18" x="0" y="0" width="298" height="298" filterUnits="userSpaceOnUse" color-interpolation-filters="sRGB">
<feFlood flood-opacity="0" result="BackgroundImageFix"/>
<feColorMatrix in="SourceAlpha" type="matrix" values="0 0 0 0 0 0 0 0 0 0 0 0 0 0 0 0 0 0 127 0" result="hardAlpha"/>
<feOffset dy="4"/>
<feGaussianBlur stdDeviation="2"/>
<feComposite in2="hardAlpha" operator="out"/>
<feColorMatrix type="matrix" values="0 0 0 0 0 0 0 0 0 0 0 0 0 0 0 0 0 0 0.25 0"/>
<feBlend mode="normal" in2="BackgroundImageFix" result="effect1_dropShadow_4_18"/>
<feBlend mode="normal" in="SourceGraphic" in2="effect1_dropShadow_4_18" result="shape"/>
</filter>
<filter id="filter1_dd_4_18" x="52" y="37" width="194" height="215" filterUnits="userSpaceOnUse" color-interpolation-filters="sRGB">
<feFlood flood-opacity="0" result="BackgroundImageFix"/>
<feColorMatrix in="SourceAlpha" type="matrix" values="0 0 0 0 0 0 0 0 0 0 0 0 0 0 0 0 0 0 127 0" result="hardAlpha"/>
<feOffset dy="4"/>
<feGaussianBlur stdDeviation="2"/>
<feComposite in2="hardAlpha" operator="out"/>
<feColorMatrix type="matrix" values="0 0 0 0 0 0 0 0 0 0 0 0 0 0 0 0 0 0 0.25 0"/>
<feBlend mode="normal" in2="BackgroundImageFix" result="effect1_dropShadow_4_18"/>
<feColorMatrix in="SourceAlpha" type="matrix" values="0 0 0 0 0 0 0 0 0 0 0 0 0 0 0 0 0 0 127 0" result="hardAlpha"/>
<feOffset/>
<feGaussianBlur stdDeviation="5"/>
<feComposite in2="hardAlpha" operator="out"/>
<feColorMatrix type="matrix" values="0 0 0 0 0.582764 0 0 0 0 0.114826 0 0 0 0 0.114826 0 0 0 0.5 0"/>
<feBlend mode="normal" in2="effect1_dropShadow_4_18" result="effect2_dropShadow_4_18"/>
<feBlend mode="normal" in="SourceGraphic" in2="effect2_dropShadow_4_18" result="shape"/>
</filter>
<radialGradient id="paint0_radial_4_18" cx="0" cy="0" r="1" gradientUnits="userSpaceOnUse" gradientTransform="translate(149 145) rotate(90) scale(145)">
<stop offset="0.49" stop-color="#313131"/>
<stop offset="1" stop-color="#1D1B1B"/>
</radialGradient>
<radialGradient id="paint1_radial_4_18" cx="0" cy="0" r="1" gradientUnits="userSpaceOnUse" gradientTransform="translate(149 144.5) rotate(90) scale(106 134.406)">
<stop stop-color="#CE2929"/>
<stop offset="0.9999" stop-color="#490E0E"/>
</radialGradient>
</defs>
</svg>
