<svg width="298" height="298" viewBox="0 0 298 298" fill="none" xmlns="http://www.w3.org/2000/svg">
<g filter="url(#filter0_d_4_18)">
<circle cx="149" cy="145" r="145" fill="url(#paint0_radial_4_18)"/>
</g>
<g filter="url(#filter1_dd_4_18)">
<path d="M230.1 175.753L208.859 157.533L208.774 157.469C229.314 154.11 244.99 136.251 244.99 114.736C244.99 90.8174 225.618 71.4277 201.721 71.4277C185.748 71.4277 171.792 80.102 164.294 93.0072L163.147 74.0002L170.22 75.3396L148.172 46L125.571 77.5507L132.644 75.0207C132.644 75.0207 132.262 87.5007 131.837 91.5402C123.999 81.0375 111.488 74.2341 97.3832 74.2341C73.6564 74.2341 54.4116 93.4962 54.4116 117.244C54.4116 139.419 71.1712 157.661 92.71 159.999L71.1074 172.224L66.7317 158.213L46 213.895L93.3685 213.725L88.1431 202.925L101.653 193.145C101.653 193.442 101.631 193.761 101.631 194.059C101.631 221.634 123.956 244 151.528 244C176.232 244 196.73 226.035 200.702 202.436L211.875 211.025L203.782 218.275L252 226.715L235.644 157.533L230.1 175.753ZM201.743 86.8629C217.121 86.8629 229.59 99.3429 229.59 114.736C229.59 130.128 217.121 142.608 201.743 142.608C186.364 142.608 173.874 130.149 173.874 114.757C173.874 99.3641 186.343 86.8629 201.743 86.8629ZM67.4752 117.244C67.4752 100.704 80.8785 87.2881 97.4044 87.2881C113.93 87.2881 127.334 100.704 127.334 117.244C127.334 133.785 113.909 147.2 97.3832 147.2C80.8573 147.2 67.4752 133.785 67.4752 117.244ZM151.846 229.522C132.729 229.522 117.244 214.023 117.244 194.888C117.244 175.753 132.729 160.254 151.846 160.254C170.964 160.254 186.449 175.753 186.449 194.888C186.449 214.023 170.964 229.522 151.846 229.522Z" fill="url(#paint1_radial_4_18)"/>
</g>
<defs>
<filter id="filter0_d_4_18" x="0" y="0" width="298" height="298" filterUnits="userSpaceOnUse" color-interpolation-filters="sRGB">
<feFlood flood-opacity="0" result="BackgroundImageFix"/>
<feColorMatrix in="SourceAlpha" type="matrix" values="0 0 0 0 0 0 0 0 0 0 0 0 0 0 0 0 0 0 127 0" result="hardAlpha"/>
<feOffset dy="4"/>
<feGaussianBlur stdDeviation="2"/>
<feComposite in2="hardAlpha" operator="out"/>
<feColorMatrix type="matrix" values="0 0 0 0 0 0 0 0 0 0 0 0 0 0 0 0 0 0 0.25 0"/>
<feBlend mode="normal" in2="BackgroundImageFix" result="effect1_dropShadow_4_18"/>
<feBlend mode="normal" in="SourceGraphic" in2="effect1_dropShadow_4_18" result="shape"/>
</filter>
<filter id="filter1_dd_4_18" x="36" y="36" width="226" height="218" filterUnits="userSpaceOnUse" color-interpolation-filters="sRGB">
<feFlood flood-opacity="0" result="BackgroundImageFix"/>
<feColorMatrix in="SourceAlpha" type="matrix" values="0 0 0 0 0 0 0 0 0 0 0 0 0 0 0 0 0 0 127 0" result="hardAlpha"/>
<feOffset/>
<feGaussianBlur stdDeviation="5"/>
<feComposite in2="hardAlpha" operator="out"/>
<feColorMatrix type="matrix" values="0 0 0 0 0.224893 0 0 0 0 0.689876 0 0 0 0 0.142837 0 0 0 0.46 0"/>
<feBlend mode="normal" in2="BackgroundImageFix" result="effect1_dropShadow_4_18"/>
<feColorMatrix in="SourceAlpha" type="matrix" values="0 0 0 0 0 0 0 0 0 0 0 0 0 0 0 0 0 0 127 0" result="hardAlpha"/>
<feOffset dy="4"/>
<feGaussianBlur stdDeviation="2"/>
<feComposite in2="hardAlpha" operator="out"/>
<feColorMatrix type="matrix" values="0 0 0 0 0 0 0 0 0 0 0 0 0 0 0 0 0 0 0.25 0"/>
<feBlend mode="normal" in2="effect1_dropShadow_4_18" result="effect2_dropShadow_4_18"/>
<feBlend mode="normal" in="SourceGraphic" in2="effect2_dropShadow_4_18" result="shape"/>
</filter>
<radialGradient id="paint0_radial_4_18" cx="0" cy="0" r="1" gradientUnits="userSpaceOnUse" gradientTransform="translate(149 145) rotate(90) scale(145)">
<stop offset="0.49" stop-color="#313131"/>
<stop offset="1" stop-color="#1D1B1B"/>
</radialGradient>
<radialGradient id="paint1_radial_4_18" cx="0" cy="0" r="1" gradientUnits="userSpaceOnUse" gradientTransform="translate(149 145) rotate(90) scale(99 135.489)">
<stop stop-color="#4AA74F"/>
<stop offset="0.9999" stop-color="#1D411F"/>
</radialGradient>
</defs>
</svg>
