<svg width="298" height="298" viewBox="0 0 298 298" fill="none" xmlns="http://www.w3.org/2000/svg">
<g filter="url(#sfilter0_d_4_18)">
<circle cx="149" cy="145" r="145" fill="url(#spaint0_radial_4_18)"/>
</g>
<g filter="url(#sfilter1_dd_4_18)">
<path d="M248.991 78.2828C246.359 84.8327 239.951 89.4536 232.44 89.4536C222.594 89.4536 214.616 81.4836 214.616 71.6482C214.616 61.8129 222.594 53.8428 232.44 53.8428C234.625 53.8428 236.747 54.2456 238.678 54.9663C232.801 49.4127 224.865 46 216.123 46C197.959 46 183.233 60.7106 183.233 78.8552C183.233 82.9038 183.955 86.7616 185.292 90.3439C185.228 90.3227 185.207 90.3015 185.207 90.3015L172.921 102.596C160.296 93.9473 144.997 88.8601 128.531 88.8601C101.456 88.8601 77.5845 102.553 63.4528 123.369C75.9295 114.699 91.0797 109.633 107.418 109.633C123.948 109.633 139.289 114.847 151.829 123.708L137.676 137.867C128.892 132.42 118.516 129.261 107.418 129.261C75.7173 129.261 50 154.952 50 186.641C50 218.331 75.7173 244 107.418 244C139.119 244 164.837 218.309 164.837 186.641C164.837 176.573 162.227 167.119 157.686 158.895C157.686 158.895 163.86 152.832 172.072 144.735C179.923 156.796 184.485 171.189 184.485 186.641C184.485 205.422 177.759 222.634 166.576 235.988C190.724 222.612 207.083 196.879 207.083 167.331C207.083 151.052 202.118 135.917 193.609 123.39C198.596 118.43 203.158 113.83 206.574 110.311C209.587 111.223 212.791 111.71 216.101 111.71C234.265 111.71 248.991 96.9997 248.991 78.8552C249.012 78.6644 248.991 78.4736 248.991 78.2828Z" fill="url(#spaint1_radial_4_18)"/>
</g>
<defs>
<filter id="sfilter0_d_4_18" x="0" y="0" width="298" height="298" filterUnits="userSpaceOnUse" color-interpolation-filters="sRGB">
<feFlood flood-opacity="0" result="BackgroundImageFix"/>
<feColorMatrix in="SourceAlpha" type="matrix" values="0 0 0 0 0 0 0 0 0 0 0 0 0 0 0 0 0 0 127 0" result="hardAlpha"/>
<feOffset dy="4"/>
<feGaussianBlur stdDeviation="2"/>
<feComposite in2="hardAlpha" operator="out"/>
<feColorMatrix type="matrix" values="0 0 0 0 0 0 0 0 0 0 0 0 0 0 0 0 0 0 0.25 0"/>
<feBlend mode="normal" in2="BackgroundImageFix" result="effect1_dropShadow_4_18"/>
<feBlend mode="normal" in="SourceGraphic" in2="effect1_dropShadow_4_18" result="shape"/>
</filter>
<filter id="sfilter1_dd_4_18" x="40" y="36" width="219" height="218" filterUnits="userSpaceOnUse" color-interpolation-filters="sRGB">
<feFlood flood-opacity="0" result="BackgroundImageFix"/>
<feColorMatrix in="SourceAlpha" type="matrix" values="0 0 0 0 0 0 0 0 0 0 0 0 0 0 0 0 0 0 127 0" result="hardAlpha"/>
<feOffset dy="4"/>
<feGaussianBlur stdDeviation="2"/>
<feComposite in2="hardAlpha" operator="out"/>
<feColorMatrix type="matrix" values="0 0 0 0 0 0 0 0 0 0 0 0 0 0 0 0 0 0 0.25 0"/>
<feBlend mode="normal" in2="BackgroundImageFix" result="effect1_dropShadow_4_18"/>
<feColorMatrix in="SourceAlpha" type="matrix" values="0 0 0 0 0 0 0 0 0 0 0 0 0 0 0 0 0 0 127 0" result="hardAlpha"/>
<feOffset/>
<feGaussianBlur stdDeviation="5"/>
<feComposite in2="hardAlpha" operator="out"/>
<feColorMatrix type="matrix" values="0 0 0 0 1 0 0 0 0 0.000292969 0 0 0 0 0.600117 0 0 0 0.54 0"/>
<feBlend mode="normal" in2="effect1_dropShadow_4_18" result="effect2_dropShadow_4_18"/>
<feBlend mode="normal" in="SourceGraphic" in2="effect2_dropShadow_4_18" result="shape"/>
</filter>
<radialGradient id="spaint0_radial_4_18" cx="0" cy="0" r="1" gradientUnits="userSpaceOnUse" gradientTransform="translate(149 145) rotate(90) scale(145)">
<stop offset="0.49" stop-color="#313131"/>
<stop offset="1" stop-color="#1D1B1B"/>
</radialGradient>
<radialGradient id="spaint1_radial_4_18" cx="0" cy="0" r="1" gradientUnits="userSpaceOnUse" gradientTransform="translate(149.5 145) rotate(93.9855) scale(122.296 158.216)">
<stop stop-color="#BF31A0"/>
<stop offset="1" stop-color="#300326"/>
</radialGradient>
</defs>
</svg>
